# xmcd
#
# Track frame offsets:
#	150
#	17919
#	32490
#	48566
#	61455
#	76187
#	93629
#	107571
#	122261
#	136763
#	148672
#	159716
#	173583
#	184915
#
# Disc length: 2678 seconds
#
# Revision: 1
# Processed by: cddbd v1.5.1PL0 Copyright (c) Steve Scherf et al.
# Submitted via: EasyCDDAExtractor 8.0.2.1
#
DISCID=b30a740e
DTITLE=Heather Myles - Rum and Rodeo
DYEAR=2005
DGENRE=Country
TTITLE0=Rum and Rodeo
TTITLE1=Make a Fool Out of Me
TTITLE2=Changes
TTITLE3=Beggin' to You
TTITLE4=And it Hurts
TTITLE5=One Good Reason Why
TTITLE6=Love Lyin' Down
TTITLE7=The Other Side of Town
TTITLE8=Indigo Moon
TTITLE9=Just Leave Me Alone
TTITLE10=Lovin' the Bottle
TTITLE11=When You Walked Out on Me
TTITLE12=Read You All Wrong
TTITLE13=Playin' in the Dirt
EXTD=YEAR: 2005\n
EXTT0=
EXTT1=
EXTT2=
EXTT3=
EXTT4=
EXTT5=
EXTT6=
EXTT7=
EXTT8=
EXTT9=
EXTT10=
EXTT11=
EXTT12=
EXTT13=
PLAYORDER=
